<svg xmlns="http://www.w3.org/2000/svg" xmlns:xlink="http://www.w3.org/1999/xlink" width="50" zoomAndPan="magnify" viewBox="0 0 37.5 37.499999" height="50" preserveAspectRatio="xMidYMid meet" version="1.0"><defs><clipPath id="1f9217c440"><path d="M 0 0 L 37.007812 0 L 37.007812 37.007812 L 0 37.007812 Z M 0 0 " clip-rule="nonzero"/></clipPath><clipPath id="f565649999"><path d="M 21.671875 21.671875 L 37.007812 21.671875 L 37.007812 37.007812 L 21.671875 37.007812 Z M 21.671875 21.671875 " clip-rule="nonzero"/></clipPath><clipPath id="b50a2b392e"><path d="M 29.585938 21.671875 C 25.214844 21.671875 21.671875 25.214844 21.671875 29.585938 C 21.671875 33.957031 25.214844 37.5 29.585938 37.5 C 33.957031 37.5 37.5 33.957031 37.5 29.585938 C 37.5 25.214844 33.957031 21.671875 29.585938 21.671875 " clip-rule="nonzero"/></clipPath></defs><g clip-path="url(#1f9217c440)"><path fill="#ffffff" d="M 0 0 L 37.5 0 L 37.5 45 L 0 45 Z M 0 0 " fill-opacity="1" fill-rule="nonzero"/><path fill="#ffffff" d="M 0 0 L 37.5 0 L 37.5 37.5 L 0 37.5 Z M 0 0 " fill-opacity="1" fill-rule="nonzero"/><path fill="#ffffff" d="M 0 0 L 37.5 0 L 37.5 37.5 L 0 37.5 Z M 0 0 " fill-opacity="1" fill-rule="nonzero"/></g><g clip-path="url(#f565649999)"><g clip-path="url(#b50a2b392e)"><path fill="#000000" d="M 21.671875 21.671875 L 37.5 21.671875 L 37.5 37.5 L 21.671875 37.5 Z M 21.671875 21.671875 " fill-opacity="1" fill-rule="nonzero"/></g></g></svg>