<svg xmlns="http://www.w3.org/2000/svg" xmlns:xlink="http://www.w3.org/1999/xlink" width="1024" zoomAndPan="magnify" viewBox="0 0 768 767.999994" height="1024" preserveAspectRatio="xMidYMid meet" version="1.0"><defs><clipPath id="2a6a7e4788"><path d="M 0 4 L 748.109375 4 L 748.109375 768 L 0 768 Z M 0 4 " clip-rule="nonzero"/></clipPath></defs><rect x="-76.8" width="921.6" fill="#ffffff" y="-76.799999" height="921.599993" fill-opacity="1"/><rect x="-76.8" width="921.6" fill="#ffffff" y="-76.799999" height="921.599993" fill-opacity="1"/><rect x="-76.8" width="921.6" fill="#000000" y="-76.799999" height="921.599993" fill-opacity="1"/><g clip-path="url(#2a6a7e4788)"><path fill="#ffffff" d="M 261.933594 1006.476562 L 262.980469 1006.476562 C 294.335938 1011.761719 325.910156 1014.765625 357.699219 1015.488281 L 358.328125 1015.488281 C 609.800781 1008.78125 741.820312 887.652344 749.15625 655.242188 C 749.207031 653.808594 749.113281 652.386719 748.871094 650.976562 C 748.628906 649.566406 748.246094 648.191406 747.726562 646.859375 C 747.203125 645.523438 746.550781 644.257812 745.765625 643.058594 C 744.984375 641.859375 744.089844 640.75 743.078125 639.734375 C 742.039062 638.757812 740.917969 637.886719 739.710938 637.125 C 738.507812 636.363281 737.238281 635.722656 735.910156 635.203125 C 734.582031 634.679688 733.21875 634.292969 731.816406 634.03125 C 730.414062 633.769531 729 633.644531 727.570312 633.65625 L 709.96875 633.65625 C 713.261719 601.855469 714.132812 569.988281 712.585938 538.058594 C 711.042969 506.125 707.09375 474.492188 700.75 443.160156 C 700.492188 441.78125 700.101562 440.441406 699.574219 439.140625 C 699.046875 437.839844 698.398438 436.605469 697.625 435.433594 C 696.851562 434.265625 695.96875 433.183594 694.976562 432.191406 C 693.984375 431.195312 692.90625 430.3125 691.738281 429.535156 C 690.570312 428.746094 689.332031 428.078125 688.027344 427.535156 C 686.722656 426.992188 685.378906 426.585938 683.992188 426.316406 C 682.605469 426.046875 681.203125 425.917969 679.792969 425.929688 C 678.378906 425.945312 676.984375 426.097656 675.601562 426.394531 C 668.058594 428.070312 660.304688 429.957031 652.757812 432.050781 C 650.609375 398.839844 645.773438 366.023438 638.246094 333.605469 C 630.722656 301.183594 620.613281 269.59375 607.914062 238.832031 C 607.398438 237.484375 606.753906 236.207031 605.972656 234.992188 C 605.195312 233.78125 604.300781 232.660156 603.292969 231.632812 C 602.28125 230.605469 601.179688 229.691406 599.980469 228.894531 C 598.78125 228.09375 597.515625 227.421875 596.179688 226.882812 C 594.855469 226.308594 593.488281 225.871094 592.078125 225.578125 C 590.664062 225.28125 589.238281 225.136719 587.796875 225.136719 C 586.355469 225.136719 584.925781 225.28125 583.515625 225.578125 C 582.101562 225.871094 580.734375 226.308594 579.414062 226.882812 C 565.445312 233.589844 552.03125 240.578125 539.179688 247.839844 C 512.144531 167.996094 455.355469 88.359375 371.53125 10.191406 C 371.050781 9.746094 370.554688 9.324219 370.035156 8.929688 C 369.515625 8.53125 368.980469 8.15625 368.429688 7.8125 C 367.875 7.464844 367.304688 7.140625 366.722656 6.847656 C 366.140625 6.554688 365.542969 6.285156 364.933594 6.046875 C 364.328125 5.808594 363.710938 5.601562 363.082031 5.417969 C 362.453125 5.238281 361.820312 5.085938 361.175781 4.964844 C 360.535156 4.84375 359.886719 4.753906 359.238281 4.691406 C 358.585938 4.628906 357.933594 4.601562 357.28125 4.601562 C 356.628906 4.601562 355.976562 4.628906 355.324219 4.691406 C 354.675781 4.753906 354.027344 4.84375 353.386719 4.964844 C 352.746094 5.085938 352.109375 5.238281 351.480469 5.417969 C 350.855469 5.601562 350.234375 5.808594 349.628906 6.046875 C 349.019531 6.285156 348.425781 6.554688 347.839844 6.847656 C 347.257812 7.140625 346.6875 7.464844 346.136719 7.8125 C 345.582031 8.15625 345.046875 8.53125 344.527344 8.929688 C 344.007812 9.324219 343.511719 9.746094 343.03125 10.191406 C 259.207031 88.359375 202.835938 167.996094 175.382812 247.839844 C 162.390625 240.296875 148.980469 233.3125 135.148438 226.882812 C 133.828125 226.308594 132.460938 225.871094 131.046875 225.578125 C 129.636719 225.28125 128.210938 225.136719 126.765625 225.136719 C 125.324219 225.136719 123.898438 225.28125 122.484375 225.578125 C 121.074219 225.871094 119.707031 226.308594 118.386719 226.882812 C 117.046875 227.421875 115.78125 228.09375 114.582031 228.894531 C 113.386719 229.691406 112.28125 230.605469 111.273438 231.632812 C 110.261719 232.660156 109.367188 233.78125 108.589844 234.992188 C 107.8125 236.207031 107.164062 237.484375 106.648438 238.832031 C 93.953125 269.59375 83.839844 301.183594 76.316406 333.605469 C 68.792969 366.023438 63.953125 398.839844 61.804688 432.050781 C 54.261719 429.957031 46.507812 428.070312 38.960938 426.394531 C 37.582031 426.097656 36.183594 425.945312 34.769531 425.929688 C 33.359375 425.917969 31.960938 426.046875 30.574219 426.316406 C 29.1875 426.585938 27.839844 426.992188 26.535156 427.535156 C 25.230469 428.078125 23.996094 428.746094 22.824219 429.535156 C 21.65625 430.3125 20.578125 431.195312 19.585938 432.191406 C 18.59375 433.183594 17.710938 434.265625 16.9375 435.433594 C 16.164062 436.605469 15.515625 437.839844 14.988281 439.140625 C 14.464844 440.441406 14.070312 441.78125 13.816406 443.160156 C 7.46875 474.492188 3.523438 506.125 1.976562 538.058594 C 0.429688 569.988281 1.304688 601.855469 4.59375 633.65625 L -13.007812 633.65625 C -14.4375 633.636719 -15.851562 633.753906 -17.257812 634.007812 C -18.664062 634.261719 -20.03125 634.648438 -21.359375 635.171875 C -22.6875 635.691406 -23.957031 636.335938 -25.160156 637.105469 C -26.363281 637.871094 -27.484375 638.75 -28.515625 639.734375 C -29.527344 640.75 -30.421875 641.859375 -31.203125 643.058594 C -31.984375 644.257812 -32.640625 645.523438 -33.160156 646.859375 C -33.683594 648.191406 -34.066406 649.5625 -34.308594 650.976562 C -34.546875 652.386719 -34.644531 653.808594 -34.59375 655.242188 C -26.839844 855.796875 72.28125 973.996094 261.933594 1006.476562 Z M 358.328125 973.785156 C 335.59375 973.140625 312.960938 971.253906 290.433594 968.125 C 292.132812 960.5 294.097656 952.945312 296.328125 945.457031 C 298.558594 937.972656 301.050781 930.570312 303.804688 923.261719 C 306.558594 915.949219 309.566406 908.746094 312.828125 901.644531 C 316.089844 894.546875 319.597656 887.570312 323.351562 880.71875 C 327.101562 873.867188 331.09375 867.15625 335.320312 860.585938 C 339.546875 854.015625 344 847.601562 348.675781 841.34375 C 353.355469 835.089844 358.25 829.003906 363.355469 823.09375 C 368.464844 817.183594 373.773438 811.457031 379.285156 805.921875 C 380.894531 804.988281 382.359375 803.871094 383.6875 802.566406 C 383.644531 802.007812 383.644531 801.449219 383.6875 800.890625 C 388.625 796.132812 393.675781 791.496094 398.835938 786.972656 C 403.992188 782.453125 409.257812 778.058594 414.621094 773.785156 C 419.988281 769.515625 425.453125 765.371094 431.015625 761.359375 C 436.578125 757.34375 442.230469 753.464844 447.976562 749.71875 C 453.71875 745.96875 459.550781 742.359375 465.464844 738.890625 C 471.382812 735.417969 477.375 732.085938 483.445312 728.898438 C 489.519531 725.707031 495.664062 722.664062 501.878906 719.765625 C 508.097656 716.867188 514.375 714.113281 520.722656 711.511719 C 527.066406 708.910156 533.472656 706.457031 539.933594 704.15625 C 546.394531 701.855469 552.90625 699.707031 559.46875 697.714844 C 566.03125 695.722656 572.636719 693.882812 579.289062 692.203125 C 585.9375 690.519531 592.621094 688.996094 599.34375 687.632812 C 606.066406 686.265625 612.816406 685.058594 619.59375 684.011719 C 626.371094 682.960938 633.171875 682.074219 639.992188 681.347656 C 646.8125 680.621094 653.644531 680.054688 660.492188 679.652344 C 667.339844 679.246094 674.191406 679.003906 681.050781 678.921875 L 687.964844 678.921875 L 706.824219 677.457031 C 693.625 870.679688 578.574219 967.917969 358.328125 973.785156 Z M 262.769531 699.878906 C 259.402344 687.976562 256.785156 675.90625 254.917969 663.675781 C 253.050781 651.445312 251.953125 639.148438 251.617188 626.78125 C 251.28125 614.410156 251.710938 602.070312 252.914062 589.757812 C 254.113281 577.445312 256.070312 565.253906 258.789062 553.183594 C 263.078125 535.726562 268.414062 518.601562 274.800781 501.800781 C 281.1875 485 288.574219 468.652344 296.960938 452.753906 C 305.351562 436.859375 314.679688 421.535156 324.945312 406.785156 C 335.210938 392.03125 346.339844 377.960938 358.328125 364.570312 C 370.320312 377.960938 381.449219 392.03125 391.714844 406.785156 C 401.980469 421.535156 411.308594 436.859375 419.695312 452.753906 C 428.085938 468.652344 435.472656 485 441.859375 501.800781 C 448.246094 518.601562 453.582031 535.726562 457.871094 553.183594 C 460.136719 565.550781 461.570312 578.015625 462.179688 590.574219 C 462.785156 603.136719 462.558594 615.679688 461.496094 628.210938 C 460.433594 640.738281 458.546875 653.144531 455.835938 665.421875 C 453.125 677.699219 449.609375 689.746094 445.296875 701.554688 C 416.734375 718.132812 390.261719 737.550781 365.875 759.816406 C 333.792969 735.898438 299.425781 715.921875 262.769531 699.878906 Z M 667.636719 637.007812 C 652.855469 637.601562 638.128906 638.886719 623.464844 640.859375 C 608.800781 642.835938 594.261719 645.492188 579.847656 648.832031 C 565.429688 652.171875 551.203125 656.179688 537.167969 660.855469 C 523.128906 665.53125 509.339844 670.855469 495.800781 676.828125 C 500.625 657.289062 503.480469 637.46875 504.359375 617.359375 C 505.242188 597.253906 504.136719 577.257812 501.039062 557.375 C 510.992188 548.605469 521.394531 540.40625 532.238281 532.769531 C 543.085938 525.132812 554.316406 518.109375 565.925781 511.695312 C 577.539062 505.28125 589.460938 499.515625 601.699219 494.402344 C 613.9375 489.285156 626.417969 484.847656 639.136719 481.089844 C 647.3125 478.367188 655.695312 476.0625 664.074219 473.757812 C 668.644531 500.734375 671.230469 527.898438 671.824219 555.253906 C 672.421875 582.605469 671.027344 609.859375 667.636719 637.007812 Z M 611.265625 446.300781 C 589.339844 453.667969 568.179688 462.804688 547.78125 473.707031 C 527.382812 484.609375 508.027344 497.128906 489.722656 511.269531 C 483.132812 490.910156 475.152344 471.117188 465.78125 451.878906 C 456.410156 432.644531 445.742188 414.160156 433.769531 396.425781 C 447.492188 377.652344 462.824219 360.304688 479.769531 344.378906 C 496.714844 328.457031 514.980469 314.230469 534.570312 301.699219 C 548.191406 292.6875 562.648438 284.304688 577.738281 276.132812 C 587.941406 303.386719 595.855469 331.289062 601.480469 359.84375 C 607.105469 388.394531 610.367188 417.214844 611.265625 446.300781 Z M 358.328125 56.714844 C 432.722656 128.808594 481.132812 201.527344 503.136719 273.199219 C 485.144531 285.34375 468.195312 298.792969 452.277344 313.550781 C 436.363281 328.308594 421.671875 344.195312 408.203125 361.21875 C 397.515625 347.386719 386.199219 333.554688 373.835938 319.304688 C 373.347656 318.765625 372.832031 318.253906 372.289062 317.769531 C 371.746094 317.285156 371.179688 316.828125 370.585938 316.402344 C 369.996094 315.976562 369.386719 315.582031 368.753906 315.21875 C 368.121094 314.859375 367.472656 314.53125 366.808594 314.234375 C 366.140625 313.941406 365.464844 313.679688 364.769531 313.457031 C 364.078125 313.234375 363.375 313.046875 362.664062 312.894531 C 361.949219 312.746094 361.230469 312.632812 360.507812 312.558594 C 359.785156 312.480469 359.058594 312.441406 358.328125 312.441406 C 357.601562 312.441406 356.875 312.480469 356.152344 312.558594 C 355.425781 312.632812 354.710938 312.746094 353.996094 312.894531 C 353.285156 313.046875 352.582031 313.234375 351.890625 313.457031 C 351.195312 313.679688 350.515625 313.941406 349.851562 314.234375 C 349.183594 314.53125 348.535156 314.859375 347.90625 315.21875 C 347.273438 315.582031 346.664062 315.976562 346.070312 316.402344 C 345.480469 316.828125 344.914062 317.285156 344.371094 317.769531 C 343.828125 318.253906 343.3125 318.765625 342.824219 319.304688 C 330.457031 333.136719 319.140625 346.96875 308.453125 361.21875 C 294.988281 344.195312 280.296875 328.308594 264.382812 313.550781 C 248.464844 298.792969 231.511719 285.34375 213.523438 273.199219 C 235.527344 201.527344 283.9375 128.808594 358.328125 56.714844 Z M 138.921875 276.761719 C 154.011719 284.933594 168.46875 293.316406 182.089844 302.328125 C 201.679688 314.859375 219.945312 329.082031 236.890625 345.007812 C 253.835938 360.929688 269.167969 378.28125 282.886719 397.054688 C 270.953125 414.710938 260.285156 433.105469 250.878906 452.230469 C 241.476562 471.355469 233.425781 491.035156 226.726562 511.269531 C 208.496094 496.996094 189.195312 484.355469 168.828125 473.347656 C 148.460938 462.335938 127.316406 453.113281 105.390625 445.671875 C 106.359375 416.796875 109.65625 388.191406 115.28125 359.851562 C 120.90625 331.515625 128.785156 303.816406 138.921875 276.761719 Z M 52.582031 473.753906 L 77.519531 481.089844 C 90.246094 484.839844 102.726562 489.269531 114.96875 494.378906 C 127.210938 499.492188 139.136719 505.253906 150.746094 511.667969 C 162.359375 518.082031 173.585938 525.109375 184.433594 532.75 C 195.277344 540.390625 205.671875 548.597656 215.621094 557.375 C 211.902344 577.707031 210.039062 598.210938 210.039062 618.882812 C 210.039062 639.554688 211.902344 660.054688 215.621094 680.390625 C 161.726562 660.476562 106.332031 646.503906 49.441406 638.476562 C 45.863281 611.097656 44.339844 583.605469 44.863281 556 C 45.390625 528.390625 47.964844 500.976562 52.582031 473.753906 Z M 28.902344 678.921875 C 64.707031 683.015625 100.007812 689.730469 134.8125 699.074219 C 169.617188 708.417969 203.535156 720.28125 236.574219 734.667969 C 272.46875 749.359375 306.066406 768.152344 337.375 791.042969 C 326.535156 803.003906 316.527344 815.621094 307.347656 828.898438 C 298.167969 842.179688 289.902344 856 282.542969 870.367188 C 275.183594 884.730469 268.796875 899.519531 263.382812 914.722656 C 257.96875 929.929688 253.574219 945.425781 250.199219 961.210938 C 100.992188 929.148438 22.199219 835.46875 10.882812 676.828125 Z M 28.902344 678.921875 " fill-opacity="1" fill-rule="nonzero"/></g></svg>