<svg xmlns="http://www.w3.org/2000/svg" xmlns:xlink="http://www.w3.org/1999/xlink" width="1024" zoomAndPan="magnify" viewBox="0 0 768 767.999994" height="1024" preserveAspectRatio="xMidYMid meet" version="1.0"><defs><g/><clipPath id="ba0ef85623"><path d="M 38.007812 0 L 767.875 0 L 767.875 768 L 38.007812 768 Z M 38.007812 0 " clip-rule="nonzero"/></clipPath></defs><g clip-path="url(#ba0ef85623)"><path fill="#000000" d="M 467.753906 606.933594 C 458.703125 583.886719 456.34375 546.855469 454.476562 513.992188 C 453.253906 492.496094 454.472656 471.90625 460.511719 456.058594 C 453.269531 456.539062 449.667969 464.726562 441.199219 468.125 C 413.808594 479.121094 370.105469 477.390625 344.628906 466.921875 C 349.230469 503.753906 350.3125 553.3125 347.042969 587.621094 C 335.132812 582.316406 339.3125 559.382812 338.59375 542.957031 C 337.472656 517.503906 339.917969 452.046875 321.695312 448.8125 C 310.273438 446.789062 297.792969 466.574219 292.726562 477.78125 C 280.722656 504.3125 273.972656 534.640625 268.585938 567.101562 C 265.738281 584.207031 260.601562 599.25 257.71875 612.960938 C 243.113281 682.367188 245.011719 754.945312 233.574219 815.738281 C 232.257812 822.289062 240.582031 819.195312 238.40625 826.601562 C 232.128906 824.273438 217.351562 820.398438 216.675781 835.046875 C 229.378906 836.433594 243.480469 836.414062 257.71875 836.257812 C 266.28125 809.414062 273.605469 781.328125 290.308594 762.632812 C 345.691406 740.710938 453.976562 740.753906 520.867188 751.765625 C 526.929688 752.765625 536.539062 754.066406 541.386719 756.597656 C 564.808594 768.820312 554.453125 804.375 564.320312 827.808594 C 574.488281 830.964844 585.71875 826.273438 598.125 827.808594 C 598.28125 822.484375 594.308594 822.679688 593.289062 815.738281 C 592.523438 810.484375 594.484375 804.140625 594.5 798.839844 C 594.589844 764.289062 589.871094 726.648438 581.21875 695.039062 C 572.757812 664.125 559.78125 635.421875 554.664062 605.722656 C 553.648438 599.832031 555.179688 593.222656 554.664062 586.410156 C 552.96875 563.914062 543.132812 534.652344 531.730469 510.371094 C 519.976562 485.339844 503.21875 457.609375 482.242188 446.402344 C 481.214844 446.175781 481.101562 446.875 481.03125 447.605469 C 465.828125 456.457031 465.339844 480.550781 465.335938 499.507812 C 465.335938 534.25 477.394531 575.636719 467.753906 606.933594 Z M 314.449219 439.160156 C 316.625 440.582031 323.957031 437.765625 327.730469 440.367188 C 335.609375 443.351562 338.292969 451.527344 343.421875 457.261719 C 409.921875 497.636719 509.957031 443.199219 470.167969 366.738281 C 454.742188 337.09375 406.921875 319.464844 367.5625 328.117188 C 347.707031 332.480469 336.816406 336.117188 325.316406 349.84375 C 308 370.503906 300.570312 410.125 314.449219 439.160156 Z M 388.085938 320.871094 C 375.792969 297.816406 375.851562 255.726562 389.292969 233.972656 C 372.859375 207.523438 350.230469 189.265625 315.660156 185.695312 C 223.675781 176.199219 180.644531 289.027344 242.027344 343.808594 C 248.3125 349.417969 258.761719 357.882812 268.585938 361.910156 C 276.742188 365.257812 296.8125 371.839844 304.792969 369.152344 C 310.765625 367.144531 315.089844 352.824219 320.484375 346.226562 C 334.640625 328.886719 353.160156 321.214844 388.085938 320.871094 Z M 395.328125 320.871094 C 438.769531 324.914062 467.707031 343.453125 481.03125 377.601562 C 544.523438 377.441406 594.964844 334.632812 589.671875 270.183594 C 585.902344 224.242188 546.65625 182.027344 494.308594 178.453125 C 419.195312 173.320312 363.144531 246.492188 395.328125 320.871094 Z M 216.675781 50.511719 C 203.675781 26.25 182.203125 3.925781 150.285156 -5.011719 C 147.722656 -2.742188 150.265625 4.617188 146.667969 5.851562 C 104.332031 -3.929688 72.925781 17.746094 60.960938 44.480469 C 36.628906 98.839844 75.109375 155.6875 129.765625 161.554688 C 113.234375 201.515625 100.136719 250.773438 105.628906 308.808594 C 99.753906 309.828125 89.3125 305.015625 80.273438 305.1875 C 74.988281 319.078125 87.074219 325.632812 91.140625 334.152344 C 86.636719 342.523438 73.203125 341.964844 71.828125 353.464844 C 79.597656 366.207031 103.996094 362.328125 108.035156 378.808594 C 107.171875 385.1875 97.25 382.503906 94.765625 387.257812 C 101.714844 403.273438 126.367188 404.574219 138.214844 417.429688 C 142.898438 422.507812 145.078125 431.578125 149.078125 437.949219 C 176.421875 481.558594 214.789062 518.375 263.75 542.957031 C 271 501.527344 281.550781 463.398438 308.417969 441.570312 C 298.324219 425.640625 298.101562 395.050781 304.792969 375.191406 C 243.09375 370.066406 202.582031 328.632812 205.8125 271.386719 C 208.765625 219.121094 253.121094 179.78125 306 179.660156 C 347.859375 179.5625 373.652344 200.28125 391.707031 226.730469 C 397.296875 221.746094 399.421875 214.996094 403.78125 209.832031 C 462.0625 140.753906 605.1875 172.839844 595.703125 288.285156 C 590.855469 347.414062 546.941406 380.839844 482.242188 383.640625 C 487.507812 403.867188 482.964844 426.402344 474.996094 440.367188 C 484.769531 435.546875 492.789062 439.261719 500.34375 445.195312 C 524.082031 463.832031 542.949219 508.277344 553.457031 538.128906 C 594.777344 513.0625 629.734375 481.632812 654.855469 440.367188 C 666.363281 445.953125 697.261719 432.320312 693.480469 419.847656 C 692.035156 415.082031 689.171875 413.804688 682.617188 416.226562 C 686.355469 393.675781 752.109375 397.507812 726.074219 366.738281 C 718.050781 364.757812 714.050781 371.867188 707.96875 367.945312 C 708.582031 349.777344 757.246094 327.4375 726.074219 314.84375 C 715.644531 319.296875 710.324219 328.863281 698.304688 331.734375 C 697.015625 322.523438 701.253906 309.855469 701.929688 296.738281 C 704.484375 246.863281 691.90625 197.554688 676.582031 165.175781 C 685.105469 156.207031 697.160156 156.941406 707.96875 151.898438 C 741.984375 136.027344 766.085938 90.726562 745.386719 44.480469 C 733.871094 18.746094 703.195312 -3.929688 660.886719 5.851562 C 656.832031 5.082031 657.019531 0.0664062 657.269531 -5.011719 C 626.484375 4.445312 602.925781 21.121094 592.085938 50.511719 C 545.160156 18.210938 484.480469 -15.164062 406.191406 -15.871094 C 327.542969 -16.585938 262.378906 14.765625 216.675781 50.511719 Z M 420.675781 -27.941406 C 489.964844 -23.566406 546.339844 -1.160156 587.257812 29.988281 C 593.382812 20.578125 603.09375 6.074219 617.433594 -3.800781 C 629.355469 -12.007812 669.714844 -31.1875 674.167969 -9.839844 C 717.160156 -13.867188 747.605469 10.78125 759.871094 39.644531 C 784.167969 96.839844 750.371094 160.035156 695.898438 171.210938 C 710.808594 206.582031 717.183594 250.503906 715.210938 302.769531 C 745.8125 296.246094 756.246094 319.816406 744.179688 340.1875 C 741.957031 343.945312 732 353.847656 732.105469 355.878906 C 732.09375 355.679688 738.34375 361.90625 739.351562 363.117188 C 745.867188 370.957031 746.007812 372.652344 745.386719 387.257812 C 737.625 402.035156 720.710938 407.648438 704.34375 413.8125 C 709.429688 441.871094 683.324219 449.089844 662.097656 454.847656 C 636.835938 495.175781 600.207031 524.125 561.90625 551.410156 C 567.957031 564.632812 564.308594 578.289062 565.527344 592.441406 C 566.496094 603.632812 572.789062 617.609375 576.390625 629.863281 C 592.265625 683.808594 613.433594 750.421875 607.78125 816.945312 C 623.707031 839.226562 587.460938 846.910156 566.734375 843.5 C 533.988281 838.105469 554.878906 781.980469 532.9375 768.667969 C 525.074219 763.894531 504.273438 764.296875 489.480469 762.632812 C 420.464844 754.839844 346.828125 759.414062 295.136719 777.117188 C 291.410156 787.550781 285.210938 796.882812 280.652344 810.910156 C 277.070312 821.925781 275.726562 842.269531 267.375 847.121094 C 252.511719 855.757812 205.71875 851.570312 202.191406 839.875 C 196.496094 820.992188 216.332031 819.347656 221.503906 807.289062 C 224.613281 800.042969 223.933594 785.722656 225.125 774.699219 C 227.332031 754.304688 227.808594 738.679688 228.746094 717.976562 C 231.484375 657.742188 251.136719 604.140625 255.304688 556.238281 C 215.667969 535.078125 174.773438 498.320312 147.875 460.886719 C 138.476562 447.8125 130.480469 427.273438 121.316406 419.847656 C 106.363281 407.738281 66.21875 400.03125 86.3125 376.398438 C 58.820312 370.554688 50.019531 345.164062 74.242188 330.53125 C 58.082031 319.09375 67.757812 285.222656 91.140625 293.113281 C 89.320312 243.820312 98.183594 205.210938 110.453125 170 C 70.128906 161.808594 38.730469 126.671875 38.023438 84.308594 C 37.171875 32.679688 72.203125 -15.09375 133.390625 -9.839844 C 139.359375 -31.765625 175.085938 -12.355469 188.910156 -2.597656 C 203.402344 7.625 213.386719 20.65625 220.296875 29.988281 C 266.867188 -5.976562 339.441406 -33.070312 420.675781 -27.941406 " fill-opacity="1" fill-rule="evenodd"/></g><path fill="#ccb287" d="M 184.082031 361.910156 C 185.914062 369.777344 199.054688 388.179688 209.433594 383.640625 C 203.746094 373.632812 192.738281 368.949219 184.082031 361.910156 Z M 200.984375 348.636719 C 198.726562 353.878906 209.972656 366.074219 217.886719 369.15625 C 219.34375 359.871094 208.433594 352.984375 200.984375 348.636719 Z M 622.261719 348.636719 C 621.058594 348.636719 619.847656 348.636719 618.644531 348.636719 C 617.210938 363.300781 605.164062 367.347656 598.121094 376.398438 C 610.609375 377.140625 624.925781 363.058594 622.261719 348.636719 Z M 616.222656 320.871094 C 605.9375 332.316406 598.378906 346.484375 589.667969 359.5 C 602.046875 355.734375 615.921875 336.726562 616.222656 320.871094 Z M 482.242188 99.992188 C 498.140625 109.4375 519.335938 113.597656 532.9375 125.34375 C 537.585938 99.992188 514.175781 75.847656 490.6875 74.652344 C 483.421875 78.652344 482.707031 89.203125 482.242188 99.992188 Z M 275.824219 122.929688 C 286.234375 119.875 323.402344 114.273438 326.519531 99.992188 C 329.074219 88.300781 318.84375 78.089844 313.246094 68.617188 C 312.039062 68.617188 310.828125 68.617188 309.621094 68.617188 C 299.742188 87.332031 277.515625 100.046875 275.824219 122.929688 Z M 147.875 128.96875 C 157.820312 109.140625 172.984375 94.527344 185.289062 77.066406 C 164.386719 53.875 118.359375 62.152344 122.523438 98.796875 C 124.269531 114.132812 134.273438 123.027344 147.875 128.96875 Z M 660.890625 132.589844 C 670.855469 124.046875 681.667969 114.09375 683.824219 99.992188 C 684.441406 95.941406 684.421875 85.871094 682.613281 81.894531 C 674.390625 63.757812 641.152344 56.636719 628.296875 71.03125 C 617.460938 83.160156 636.558594 95.785156 643.992188 106.035156 C 651.261719 116.054688 654.929688 124.152344 660.890625 132.589844 Z M 406.191406 -15.867188 C 484.480469 -15.164062 545.160156 18.207031 592.082031 50.511719 C 602.921875 21.125 626.484375 4.445312 657.269531 -5.011719 C 657.023438 0.0664062 656.832031 5.082031 660.890625 5.851562 C 703.195312 -3.929688 733.871094 18.746094 745.382812 44.480469 C 766.085938 90.730469 741.984375 136.023438 707.96875 151.898438 C 697.160156 156.945312 685.101562 156.207031 676.578125 165.179688 C 691.90625 197.550781 704.484375 246.867188 701.929688 296.734375 C 701.257812 309.855469 697.015625 322.523438 698.308594 331.738281 C 710.324219 328.863281 715.640625 319.296875 726.070312 314.847656 C 757.242188 327.4375 708.585938 349.777344 707.96875 367.945312 C 714.054688 371.867188 718.054688 364.761719 726.070312 366.738281 C 752.105469 397.507812 686.351562 393.675781 682.613281 416.226562 C 689.171875 413.804688 692.035156 415.082031 693.476562 419.847656 C 697.261719 432.320312 666.367188 445.953125 654.855469 440.367188 C 629.734375 481.632812 594.777344 513.0625 553.457031 538.128906 C 542.949219 508.277344 524.082031 463.832031 500.34375 445.199219 C 492.789062 439.261719 484.769531 435.550781 474.992188 440.367188 C 482.960938 426.402344 487.507812 403.867188 482.242188 383.640625 C 546.9375 380.839844 590.851562 347.414062 595.703125 288.285156 C 605.1875 172.839844 462.0625 140.753906 403.777344 209.835938 C 399.421875 214.996094 397.296875 221.75 391.707031 226.734375 C 373.652344 200.285156 347.855469 179.5625 306 179.664062 C 253.121094 179.78125 208.765625 219.121094 205.8125 271.386719 C 202.582031 328.632812 243.09375 370.070312 304.792969 375.191406 C 298.101562 395.050781 298.324219 425.640625 308.417969 441.570312 C 281.550781 463.398438 271 501.527344 263.75 542.960938 C 214.789062 518.375 176.421875 481.558594 149.078125 437.953125 C 145.078125 431.578125 142.898438 422.507812 138.214844 417.429688 C 126.367188 404.574219 101.714844 403.273438 94.765625 387.257812 C 97.25 382.503906 107.171875 385.1875 108.035156 378.808594 C 103.996094 362.328125 79.597656 366.207031 71.828125 353.464844 C 73.203125 341.96875 86.636719 342.523438 91.140625 334.152344 C 87.074219 325.632812 74.988281 319.078125 80.273438 305.1875 C 89.3125 305.015625 99.753906 309.828125 105.628906 308.804688 C 100.136719 250.773438 113.234375 201.515625 129.765625 161.550781 C 75.109375 155.691406 36.628906 98.835938 60.960938 44.480469 C 72.925781 17.746094 104.332031 -3.929688 146.667969 5.851562 C 150.265625 4.621094 147.722656 -2.742188 150.285156 -5.011719 C 182.203125 3.929688 203.675781 26.253906 216.675781 50.511719 C 262.378906 14.769531 327.542969 -16.582031 406.191406 -15.867188 " fill-opacity="1" fill-rule="evenodd"/><path fill="#000000" d="M 636.746094 78.273438 C 644.652344 90.480469 655.589844 99.660156 662.097656 113.273438 C 687.527344 100.484375 663.253906 59.492188 636.746094 78.273438 Z M 643.988281 106.03125 C 636.558594 95.789062 617.460938 83.160156 628.300781 71.027344 C 641.15625 56.636719 674.390625 63.761719 682.613281 81.890625 C 684.421875 85.871094 684.445312 95.941406 683.824219 99.992188 C 681.667969 114.089844 670.855469 124.046875 660.886719 132.585938 C 654.929688 124.148438 651.261719 116.054688 643.988281 106.03125 " fill-opacity="1" fill-rule="evenodd"/><path fill="#000000" d="M 144.253906 113.273438 C 151.367188 100.273438 161.839844 90.621094 169.597656 78.273438 C 143.09375 59.492188 118.820312 100.484375 144.253906 113.273438 Z M 122.523438 98.792969 C 118.359375 62.148438 164.386719 53.867188 185.292969 77.0625 C 172.984375 94.527344 157.820312 109.140625 147.875 128.964844 C 134.273438 123.023438 124.269531 114.128906 122.523438 98.792969 " fill-opacity="1" fill-rule="evenodd"/><path fill="#000000" d="M 312.039062 79.476562 C 303.238281 88.386719 295.832031 98.683594 289.097656 109.652344 C 299.929688 107.207031 307.921875 101.921875 319.277344 99.996094 C 318.550781 91.476562 314.078125 86.691406 312.039062 79.476562 Z M 309.621094 68.617188 C 310.828125 68.617188 312.039062 68.617188 313.246094 68.617188 C 318.84375 78.089844 329.074219 88.300781 326.519531 99.996094 C 323.402344 114.273438 286.234375 119.871094 275.824219 122.929688 C 277.515625 100.042969 299.742188 87.332031 309.621094 68.617188 " fill-opacity="1" fill-rule="evenodd"/><path fill="#000000" d="M 493.105469 81.890625 C 491.226562 86.457031 490.75 92.410156 490.6875 98.789062 C 503.042969 101.324219 514.738281 104.519531 522.074219 112.0625 C 522.660156 96.585938 506.207031 87.703125 493.105469 81.890625 Z M 490.6875 74.652344 C 514.175781 75.84375 537.589844 99.988281 532.9375 125.339844 C 519.335938 113.597656 498.144531 109.4375 482.242188 99.992188 C 482.707031 89.199219 483.425781 78.652344 490.6875 74.652344 " fill-opacity="1" fill-rule="evenodd"/><path fill="#ff9999" d="M 636.746094 78.269531 C 644.65625 90.480469 655.59375 99.660156 662.097656 113.273438 C 687.527344 100.488281 663.257812 59.492188 636.746094 78.269531 " fill-opacity="1" fill-rule="evenodd"/><path fill="#ff9999" d="M 144.253906 113.273438 C 151.367188 100.273438 161.839844 90.621094 169.597656 78.269531 C 143.09375 59.492188 118.820312 100.488281 144.253906 113.273438 " fill-opacity="1" fill-rule="evenodd"/><path fill="#f9e5ca" d="M 312.039062 79.476562 C 303.238281 88.382812 295.832031 98.683594 289.097656 109.652344 C 299.929688 107.207031 307.921875 101.917969 319.277344 99.996094 C 318.550781 91.476562 314.078125 86.691406 312.039062 79.476562 " fill-opacity="1" fill-rule="evenodd"/><path fill="#f9e5ca" d="M 493.101562 81.894531 C 491.226562 86.457031 490.746094 92.410156 490.6875 98.792969 C 503.039062 101.328125 514.738281 104.519531 522.074219 112.066406 C 522.65625 96.585938 506.203125 87.707031 493.101562 81.894531 " fill-opacity="1" fill-rule="evenodd"/><path fill="#fffffb" d="M 473.785156 272.59375 C 464.519531 296.0625 496.652344 301.933594 499.140625 284.667969 C 500.875 272.613281 484.804688 261.339844 473.785156 272.59375 Z M 494.3125 178.453125 C 546.65625 182.027344 585.902344 224.242188 589.667969 270.183594 C 594.964844 334.636719 544.523438 377.441406 481.03125 377.601562 C 467.707031 343.457031 438.769531 324.914062 395.324219 320.871094 C 363.144531 246.492188 419.195312 173.320312 494.3125 178.453125 " fill-opacity="1" fill-rule="evenodd"/><path fill="#fffffb" d="M 308.417969 266.558594 C 298.4375 263.148438 294.011719 268.277344 292.726562 272.597656 C 287.429688 290.324219 312.644531 297.429688 316.863281 283.457031 C 320.023438 272.992188 314.253906 268.554688 308.417969 266.558594 Z M 320.484375 346.222656 C 315.089844 352.824219 310.765625 367.144531 304.792969 369.152344 C 296.8125 371.839844 276.742188 365.257812 268.585938 361.910156 C 258.761719 357.886719 248.3125 349.414062 242.027344 343.808594 C 180.644531 289.027344 223.675781 176.195312 315.660156 185.691406 C 350.230469 189.261719 372.859375 207.519531 389.292969 233.972656 C 375.851562 255.726562 375.792969 297.820312 388.085938 320.871094 C 353.160156 321.21875 334.640625 328.886719 320.484375 346.222656 " fill-opacity="1" fill-rule="evenodd"/><path fill="#000000" d="M 308.417969 266.558594 C 298.4375 263.148438 294.011719 268.277344 292.726562 272.597656 C 287.429688 290.328125 312.644531 297.433594 316.863281 283.457031 C 320.023438 272.992188 314.253906 268.558594 308.417969 266.558594 " fill-opacity="1" fill-rule="evenodd"/><path fill="#000000" d="M 473.785156 272.59375 C 464.523438 296.0625 496.652344 301.933594 499.136719 284.667969 C 500.875 272.617188 484.800781 261.339844 473.785156 272.59375 " fill-opacity="1" fill-rule="evenodd"/><path fill="#000000" d="M 616.226562 320.871094 C 605.941406 332.316406 598.378906 346.484375 589.671875 359.496094 C 602.050781 355.734375 615.921875 336.726562 616.226562 320.871094 " fill-opacity="1" fill-rule="evenodd"/><path fill="#f9e5ca" d="M 389.296875 372.773438 C 390.046875 392.839844 368.460938 390.566406 366.355469 407.777344 C 380.191406 409.140625 382.59375 399.070312 389.296875 393.292969 C 395.488281 396.542969 400.71875 406.554688 408.609375 404.15625 C 408.160156 389.710938 392.824219 390.160156 395.328125 372.773438 C 406.671875 368.140625 423.53125 369.84375 425.503906 358.289062 C 429.46875 335.101562 375.070312 327.421875 360.320312 343.808594 C 351.226562 364.265625 367.835938 375.3125 389.296875 372.773438 Z M 325.316406 349.84375 C 336.816406 336.113281 347.707031 332.480469 367.5625 328.113281 C 406.921875 319.464844 454.742188 337.089844 470.167969 366.738281 C 509.957031 443.199219 409.921875 497.636719 343.425781 457.261719 C 338.292969 451.523438 335.609375 443.351562 327.730469 440.367188 C 323.960938 437.765625 316.628906 440.582031 314.449219 439.160156 C 300.574219 410.121094 308 370.503906 325.316406 349.84375 " fill-opacity="1" fill-rule="evenodd"/><path fill="#000000" d="M 418.261719 357.082031 C 415.929688 338.34375 360.691406 335.136719 365.148438 357.082031 C 368.140625 371.832031 410.824219 366.355469 418.261719 357.082031 Z M 360.316406 343.808594 C 375.066406 327.425781 429.46875 335.105469 425.503906 358.289062 C 423.53125 369.84375 406.671875 368.144531 395.328125 372.773438 C 392.824219 390.160156 408.160156 389.710938 408.605469 404.152344 C 400.71875 406.554688 395.488281 396.542969 389.292969 393.296875 C 382.589844 399.070312 380.191406 409.144531 366.351562 407.777344 C 368.460938 390.566406 390.042969 392.84375 389.292969 372.773438 C 367.835938 375.316406 351.226562 364.269531 360.316406 343.808594 " fill-opacity="1" fill-rule="evenodd"/><path fill="#ff9999" d="M 418.261719 357.082031 C 415.925781 338.347656 360.691406 335.140625 365.144531 357.082031 C 368.140625 371.832031 410.824219 366.355469 418.261719 357.082031 " fill-opacity="1" fill-rule="evenodd"/><path fill="#000000" d="M 622.261719 348.636719 C 621.054688 348.636719 619.847656 348.636719 618.644531 348.636719 C 617.210938 363.300781 605.164062 367.347656 598.121094 376.398438 C 610.609375 377.140625 624.925781 363.058594 622.261719 348.636719 " fill-opacity="1" fill-rule="evenodd"/><path fill="#000000" d="M 200.984375 348.636719 C 198.726562 353.882812 209.972656 366.074219 217.886719 369.152344 C 219.34375 359.871094 208.433594 352.984375 200.984375 348.636719 " fill-opacity="1" fill-rule="evenodd"/><path fill="#ccb287" d="M 467.753906 606.929688 C 458.699219 583.886719 456.347656 546.855469 454.476562 513.992188 C 453.253906 492.496094 454.472656 471.90625 460.511719 456.058594 C 453.269531 456.539062 449.671875 464.730469 441.199219 468.125 C 413.808594 479.121094 370.105469 477.394531 344.628906 466.921875 C 349.230469 503.753906 350.3125 553.308594 347.042969 587.621094 C 335.132812 582.316406 339.3125 559.382812 338.59375 542.957031 C 337.472656 517.503906 339.917969 452.046875 321.695312 448.816406 C 310.273438 446.792969 297.792969 466.570312 292.726562 477.78125 C 280.722656 504.3125 273.972656 534.640625 268.585938 567.101562 C 265.738281 584.207031 260.601562 599.25 257.71875 612.960938 C 243.113281 682.367188 245.011719 754.945312 233.574219 815.738281 C 232.257812 822.289062 240.582031 819.195312 238.40625 826.601562 C 232.128906 824.273438 217.351562 820.398438 216.675781 835.046875 C 229.378906 836.433594 243.480469 836.414062 257.71875 836.257812 C 266.28125 809.414062 273.605469 781.328125 290.308594 762.632812 C 345.691406 740.710938 453.976562 740.753906 520.867188 751.765625 C 526.925781 752.765625 536.535156 754.066406 541.386719 756.597656 C 564.8125 768.820312 554.453125 804.375 564.320312 827.808594 C 574.492188 830.964844 585.71875 826.273438 598.121094 827.808594 C 598.28125 822.484375 594.308594 822.679688 593.292969 815.738281 C 592.523438 810.484375 594.480469 804.140625 594.5 798.839844 C 594.59375 764.289062 589.871094 726.648438 581.21875 695.039062 C 572.757812 664.125 559.78125 635.421875 554.664062 605.722656 C 553.652344 599.832031 555.179688 593.222656 554.664062 586.410156 C 552.96875 563.914062 543.136719 534.652344 531.730469 510.371094 C 519.976562 485.339844 503.21875 457.609375 482.242188 446.402344 C 481.214844 446.175781 481.101562 446.875 481.03125 447.605469 C 465.828125 456.457031 465.339844 480.546875 465.335938 499.507812 C 465.335938 534.25 477.394531 575.636719 467.753906 606.929688 " fill-opacity="1" fill-rule="evenodd"/><path fill="#000000" d="M 184.082031 361.910156 C 185.914062 369.777344 199.054688 388.179688 209.433594 383.636719 C 203.746094 373.632812 192.738281 368.945312 184.082031 361.910156 " fill-opacity="1" fill-rule="evenodd"/><path stroke-linecap="butt" transform="matrix(1.087037, 0, 0, 1.087037, -70.354131, -353.598332)" fill="none" stroke-linejoin="miter" d="M 393.905729 353.006544 C 467.11219 353.006544 523.289129 370.941624 562.429359 406.80819 C 601.738483 442.674756 621.391248 493.856752 621.391248 560.34699 C 621.391248 611.938643 609.270426 657.385438 585.032375 696.690969 C 560.95603 735.834792 526.728093 766.296758 482.34497 788.076866 C 438.123553 809.860567 387.189507 820.752418 329.53924 820.752418 L 280.161173 820.752418 L 287.287053 1005.001135 L 85.10685 1005.001135 L 95.175793 813.874489 L 85.10685 353.991159 Z M 357.791213 679.984861 C 375.808943 669.994974 388.993437 657.141081 397.344694 641.415994 C 405.861251 625.529201 410.11953 605.139771 410.11953 580.247706 C 410.11953 550.766761 403.076301 529.14836 388.993437 515.392503 C 374.906978 501.633052 352.71362 494.101109 322.416954 492.789487 L 286.302438 495.739738 L 282.37476 676.057182 Z M 357.791213 679.984861 " stroke="#216d00" stroke-width="75.468002" stroke-opacity="1" stroke-miterlimit="4"/><g fill="#7ed957" fill-opacity="1"><g transform="translate(-43.534892, 738.873767)"><g><path d="M 401.421875 -708.796875 C 480.910156 -708.796875 541.984375 -689.285156 584.640625 -650.265625 C 627.296875 -611.253906 648.625 -555.65625 648.625 -483.46875 C 648.625 -427.3125 635.5 -377.90625 609.25 -335.25 C 583 -292.59375 545.8125 -259.414062 497.6875 -235.71875 C 449.5625 -212.019531 394.140625 -200.171875 331.421875 -200.171875 L 277.828125 -200.171875 L 285.484375 0 L 65.625 0 L 76.5625 -207.828125 L 65.625 -707.703125 Z M 362.046875 -353.296875 C 381.734375 -364.234375 396.132812 -378.269531 405.25 -395.40625 C 414.375 -412.550781 418.9375 -434.613281 418.9375 -461.59375 C 418.9375 -493.675781 411.273438 -517.191406 395.953125 -532.140625 C 380.640625 -547.085938 356.578125 -555.289062 323.765625 -556.75 L 284.390625 -553.46875 L 280.015625 -357.671875 Z M 362.046875 -353.296875 "/></g></g></g></svg>